<?xml version="1.0" encoding="UTF-8"?>
<svg id="Layer_1" data-name="Layer 1" xmlns="http://www.w3.org/2000/svg" viewBox="0 0 960 960">
  <defs>
    <style>
      .cls-1 {
        fill: #fc5978;
        fill-rule: evenodd;
        stroke-width: 0px;
      }
    </style>
  </defs>
  <path class="cls-1" d="M47.67,545.84v-172.88c.02-.61.29-1.18.73-1.6.38-.37.89-.59,1.43-.6h25.61c.33.01.65.08.95.22.3.16.56.38.78.65l89.96,119.5v-118.21c0-.57.24-1.11.65-1.51.42-.41.97-.64,1.55-.65h26.26c.56.04,1.1.26,1.51.65.43.43.6.95.65,1.51v172.88c0,1.19-.97,2.16-2.16,2.16h-22.89c-.3,0-.59-.06-.86-.17-.32-.15-.6-.37-.82-.65l-92.77-123.09v121.79c0,1.18-.94,2.14-2.12,2.16h-26.3c-.54,0-1.07-.2-1.47-.56-.43-.42-.68-1-.69-1.6M476.4,511.03v-137.99c0-.56.22-1.1.6-1.51.41-.42.97-.65,1.55-.65h26.3c.6.02,1.17.27,1.6.69.35.43.56.95.56,1.47v41.29h26c.6,0,1.17.26,1.6.69.36.4.57.93.56,1.47v21.98c-.03.56-.26,1.1-.65,1.51-.41.39-.95.62-1.51.65h-26v65.56c0,10.15,3.46,17.1,12.52,17.1,4.34.17,8.66-.69,12.61-2.5.71-.31,1.53-.23,2.16.22.52.43.86,1.08.86,1.77v20.43c-.01.39-.12.78-.3,1.12-.22.33-.52.59-.86.78-7.3,3.93-13.39,5.14-23.02,5.14-22.54,0-34.59-9.85-34.59-39.21M213.38,481.67v-.52c0-38.22,27.08-69.62,65.3-69.62,42.54,0,64.05,33.43,64.05,71.91,0,2.16-.17,4.36-.35,6.69-.08.54-.36,1.03-.78,1.38-.39.32-.88.5-1.38.52h-96.22c3.28,21.77,18.74,33.95,38.48,33.95,14.25,0,24.62-5.1,34.77-14.6.43-.43,1.12-.65,1.73-.56.46.06.9.26,1.25.56l14.86,13.17c.38.35.63.82.69,1.34.06.63-.14,1.26-.56,1.73-12.52,14.25-29.58,23.41-53.25,23.41-38.7,0-68.58-28.07-68.58-69.36M312.37,471.78c-2.03-19.74-13.69-35.2-33.95-35.2-18.74,0-31.87,14.42-34.68,35.2h68.67-.04ZM435.02,415.29l-30.49,43.84-29.97-43.79c-.4-.62-1.08-.99-1.81-.99h-28.07c-1.19,0-2.16.97-2.16,2.16,0,.47.15.92.43,1.3l44.61,62.06-46.38,64.7c-.48.69-.53,1.59-.13,2.33.4.66,1.13,1.06,1.9,1.04h27.25c.41,0,.81-.1,1.17-.3.24-.17.46-.37.65-.6l31.96-46.69,32.26,46.64c.22.3.48.56.78.73.31.15.65.24.99.26h28.07c.79,0,1.52-.43,1.9-1.12.4-.74.35-1.64-.13-2.33l-46.6-64.87,44.61-61.89c.48-.71.51-1.63.09-2.38-.39-.65-1.1-1.04-1.86-1.04h-27.29c-.73,0-1.41.35-1.81.95h.04ZM540.4,481.41v.52c0,37.96,30.1,69.1,70.87,69.1s71.69-31.66,71.69-69.62v-.52c0-38.22-30.19-69.36-71.17-69.36s-71.39,31.66-71.39,69.88M652.3,481.92v-.52c0-23.54-16.97-43.02-41.03-43.02s-40.21,19.22-40.21,42.5v.52c0,23.32,16.93,42.76,40.73,42.76s40.51-19.22,40.51-42.24M699.38,414.34c-.59.01-1.16.24-1.6.65-.38.41-.6.95-.6,1.51v129.31c.01.58.25,1.14.65,1.55.42.4.98.63,1.55.65h26.56c.58-.02,1.13-.25,1.55-.65.39-.42.61-.98.6-1.55v-48.72c0-34.81,18.1-49.84,44.18-50.36.7-.04,1.34-.41,1.73-.99.38-.61.46-1.36.22-2.03l-3.89-9.37-.17-.35-.09-.22v-.04l-7.39-17.75c-.22-.45-.57-.82-.99-1.08-.5-.24-1.06-.3-1.6-.17-15.33,3.46-25.65,14.34-32.05,29.71v-27.9c-.02-.57-.25-1.11-.65-1.51-.4-.4-.94-.63-1.51-.65h-26.52v-.04ZM880.77,414.77c.38-.26.83-.41,1.3-.43h27.21c.7,0,1.36.33,1.77.91.4.6.5,1.35.26,2.03l-52,134.32c-10.67,27.6-22.54,37.7-44.05,37.7-10.47.15-20.8-2.43-29.97-7.47-.93-.56-1.3-1.73-.86-2.72l8.55-18.61c.25-.55.72-.98,1.3-1.17.54-.18,1.12-.15,1.64.09,4.95,2.56,10.41,3.94,15.98,4.06,8.64,0,13.91-3.8,19-15.2l-54.42-130.9c-.28-.7-.19-1.5.26-2.12.42-.53,1.05-.84,1.73-.86h28.2c.43,0,.85.12,1.21.35.38.27.66.65.82,1.08l36.93,97.82,34.42-97.78c.14-.43.41-.81.78-1.08h-.04Z"/>
</svg>